<svg id="Layer_1" data-name="Layer 1" xmlns="http://www.w3.org/2000/svg" viewBox="0 0 410 180"><defs><style>.cls-1{fill:#fe3c3b;}</style></defs><polygon points="122.81 71.28 122.81 91.28 122.81 111.28 122.81 121.96 75.15 45.6 60.54 45.6 51.18 45.6 40.54 45.6 40.54 71.28 40.54 91.28 40.54 111.28 40.54 136.95 60.54 136.95 60.54 111.28 60.54 91.28 60.54 71.28 60.54 60.59 108.19 136.95 122.81 136.95 132.16 136.95 142.81 136.95 142.81 111.28 142.81 91.28 142.81 71.28 142.81 45.6 122.81 45.6 122.81 71.28"/><polygon points="237.91 71.28 237.91 91.28 237.91 116.09 217.91 116.09 197.91 116.09 177.91 116.09 177.91 91.28 177.91 71.28 177.91 45.6 157.91 45.6 157.91 71.28 157.91 91.28 157.91 116.95 183.58 136.95 197.91 136.95 217.91 136.95 232.24 136.95 257.91 116.95 257.91 91.28 257.91 71.28 257.91 45.6 237.91 45.6 237.91 71.28"/><polygon points="372.73 45.6 341.11 45.6 292.73 82.43 292.73 82.43 272.73 97.66 272.73 111.28 272.73 136.95 292.73 136.95 292.73 111.28 292.73 100.12 341.11 136.95 372.73 136.95 312.73 91.28 372.73 45.6"/><polygon class="cls-1" points="292.73 60.41 292.73 45.6 272.73 45.6 272.73 60.41 272.73 76.47 292.73 61.24 292.73 60.41"/></svg>