<svg id="Layer_1" data-name="Layer 1" xmlns="http://www.w3.org/2000/svg" viewBox="0 0 720 180"><defs><style>.cls-1{fill:#fe3c3b;}.cls-2{fill:#fff;}</style></defs><path class="cls-1" d="M421.47,120.18h28.44V137H399.75V47.79h21.72Z"/><path class="cls-1" d="M459.37,82.21a30.79,30.79,0,0,1,11.24-12.7,29.39,29.39,0,0,1,15.88-4.45,27.3,27.3,0,0,1,13.14,3,22.42,22.42,0,0,1,8.7,8v-10h21.72V137H508.33v-10a23.44,23.44,0,0,1-8.82,8A27.2,27.2,0,0,1,486.36,138a28.78,28.78,0,0,1-15.75-4.51,31.13,31.13,0,0,1-11.24-12.82,42.79,42.79,0,0,1-4.12-19.24A42.38,42.38,0,0,1,459.37,82.21Zm44.45,6.48a14.6,14.6,0,0,0-11-4.7,14.75,14.75,0,0,0-11,4.63q-4.5,4.63-4.51,12.77t4.51,12.89a15.12,15.12,0,0,0,22,.06q4.51-4.7,4.51-12.83T503.82,88.69Z"/><path class="cls-1" d="M572,68.11a27.39,27.39,0,0,1,13.08-3,29.36,29.36,0,0,1,15.87,4.45,30.79,30.79,0,0,1,11.24,12.7,42.38,42.38,0,0,1,4.13,19.18,42.79,42.79,0,0,1-4.13,19.24,31.13,31.13,0,0,1-11.24,12.82A29,29,0,0,1,585,138,27.33,27.33,0,0,1,572,135a23.11,23.11,0,0,1-8.77-7.94V137H541.48V43h21.71V76.11A22.42,22.42,0,0,1,572,68.11Zm17.71,20.51A14.88,14.88,0,0,0,578.56,84a14.6,14.6,0,0,0-11,4.7q-4.51,4.69-4.51,12.82t4.51,12.83a15.19,15.19,0,0,0,22-.06q4.57-4.77,4.57-12.89T589.67,88.62Z"/><path class="cls-1" d="M639,134.79a28.27,28.27,0,0,1-11.43-8.7,22.94,22.94,0,0,1-4.7-12.38h21.46a8.26,8.26,0,0,0,3.43,6,12.1,12.1,0,0,0,7.5,2.29,10.68,10.68,0,0,0,6.28-1.59,4.87,4.87,0,0,0,2.23-4.12,4.75,4.75,0,0,0-3.18-4.51,63.14,63.14,0,0,0-10.29-3.24,96.23,96.23,0,0,1-12.7-3.75,21.88,21.88,0,0,1-8.76-6.22q-3.69-4.26-3.68-11.49a19.56,19.56,0,0,1,3.36-11.12A22.76,22.76,0,0,1,638.44,68,38,38,0,0,1,654,65.06q13.34,0,21,6.61t8.83,17.52H663.78a8.67,8.67,0,0,0-3.24-5.84,11.25,11.25,0,0,0-7.18-2.16,9.93,9.93,0,0,0-5.84,1.46,4.66,4.66,0,0,0-2,4c0,2,1.08,3.56,3.24,4.58a51.72,51.72,0,0,0,10.09,3,111.89,111.89,0,0,1,12.83,4,22.24,22.24,0,0,1,8.7,6.35q3.75,4.39,3.87,11.75a18.6,18.6,0,0,1-3.49,11.11,23.09,23.09,0,0,1-10,7.69A38.43,38.43,0,0,1,655.52,138,40.86,40.86,0,0,1,639,134.79Z"/><polygon class="cls-2" points="121.96 71.28 121.96 91.28 121.96 111.28 121.96 121.96 74.3 45.6 59.69 45.6 50.33 45.6 39.69 45.6 39.69 71.28 39.69 91.28 39.69 111.28 39.69 136.95 59.69 136.95 59.69 111.28 59.69 91.28 59.69 71.28 59.69 60.59 107.34 136.95 121.96 136.95 131.31 136.95 141.96 136.95 141.96 111.28 141.96 91.28 141.96 71.28 141.96 45.6 121.96 45.6 121.96 71.28"/><polygon class="cls-2" points="237.06 71.28 237.06 91.28 237.06 116.09 217.06 116.09 197.06 116.09 177.06 116.09 177.06 91.28 177.06 71.28 177.06 45.6 157.06 45.6 157.06 71.28 157.06 91.28 157.06 116.95 182.73 136.95 197.06 136.95 217.06 136.95 231.39 136.95 257.06 116.95 257.06 91.28 257.06 71.28 257.06 45.6 237.06 45.6 237.06 71.28"/><polygon class="cls-2" points="371.88 45.6 340.26 45.6 291.88 82.43 291.88 82.43 271.88 97.66 271.88 111.28 271.88 136.95 291.88 136.95 291.88 111.28 291.88 100.12 340.26 136.95 371.88 136.95 311.88 91.28 371.88 45.6"/><polygon class="cls-1" points="291.88 60.41 291.88 45.6 271.88 45.6 271.88 60.41 271.88 76.47 291.88 61.24 291.88 60.41"/></svg>