<svg id="Layer_1" data-name="Layer 1" xmlns="http://www.w3.org/2000/svg" viewBox="0 0 1000 180"><defs><style>.cls-1{fill:#fff;}</style></defs><path class="cls-1" d="M421.08,47.79v53.34q0,8,3.94,12.32t11.56,4.32q7.62,0,11.68-4.32t4.07-12.32V47.79H474V101q0,11.92-5.08,20.19a32.55,32.55,0,0,1-13.65,12.44,42.88,42.88,0,0,1-19.11,4.19,41.86,41.86,0,0,1-18.86-4.12,30.75,30.75,0,0,1-13.15-12.45Q399.36,113,399.37,101V47.79Z"/><path class="cls-1" d="M552.34,73.38q7.42,8.07,7.43,22.16V137H538.18V98.47q0-7.12-3.69-11a14.42,14.42,0,0,0-19.81,0q-3.69,3.93-3.68,11V137H489.28V66.08H511v9.4a22.89,22.89,0,0,1,8.89-7.43,28.23,28.23,0,0,1,12.57-2.73Q544.91,65.32,552.34,73.38Z"/><path class="cls-1" d="M574.18,55.35A10.92,10.92,0,0,1,570.56,47a11.07,11.07,0,0,1,3.62-8.45,13.16,13.16,0,0,1,9.33-3.36,13,13,0,0,1,9.21,3.36A11.07,11.07,0,0,1,596.34,47a10.92,10.92,0,0,1-3.62,8.32,13,13,0,0,1-9.21,3.36A13.16,13.16,0,0,1,574.18,55.35Zm20.13,10.73V137H572.59V66.08Z"/><path class="cls-1" d="M641.93,116.63,657.3,66.08h23.11L655.27,137h-26.8L603.33,66.08h23.24Z"/><path class="cls-1" d="M756,106.72H706.83q.51,6.6,4.25,10.1a13,13,0,0,0,9.21,3.49q8.13,0,11.3-6.86h23.12A31.84,31.84,0,0,1,748.3,126a32.2,32.2,0,0,1-11.63,8.77A37.39,37.39,0,0,1,721.05,138a38,38,0,0,1-18.54-4.44,31.68,31.68,0,0,1-12.7-12.7,39.22,39.22,0,0,1-4.57-19.31,39.6,39.6,0,0,1,4.51-19.3,31.21,31.21,0,0,1,12.63-12.7,38.35,38.35,0,0,1,18.67-4.45,37.87,37.87,0,0,1,18.29,4.32A31,31,0,0,1,751.85,81.7a37.35,37.35,0,0,1,4.51,18.67A56.36,56.36,0,0,1,756,106.72ZM734.13,94.65a11.15,11.15,0,0,0-3.81-8.89,14,14,0,0,0-9.52-3.3,13.75,13.75,0,0,0-9.21,3.18,14.08,14.08,0,0,0-4.63,9Z"/><path class="cls-1" d="M799,68.68a24.58,24.58,0,0,1,12.7-3.36v23h-6q-8.13,0-12.19,3.49t-4.06,12.25V137H767.79V66.08h21.72V77.89A28.75,28.75,0,0,1,799,68.68Z"/><path class="cls-1" d="M834.46,134.79a28.33,28.33,0,0,1-11.43-8.7,23,23,0,0,1-4.7-12.39H839.8a8.2,8.2,0,0,0,3.43,6,12.09,12.09,0,0,0,7.49,2.29,10.71,10.71,0,0,0,6.29-1.59,4.86,4.86,0,0,0,2.22-4.13,4.75,4.75,0,0,0-3.18-4.5,62.62,62.62,0,0,0-10.28-3.24,97.3,97.3,0,0,1-12.7-3.75,21.91,21.91,0,0,1-8.77-6.22q-3.67-4.26-3.68-11.5A19.49,19.49,0,0,1,824,75.92a22.68,22.68,0,0,1,9.9-7.94,38.07,38.07,0,0,1,15.56-2.92q13.34,0,21,6.61t8.83,17.52H859.23A8.67,8.67,0,0,0,856,83.35a11.23,11.23,0,0,0-7.18-2.16A10,10,0,0,0,843,82.65a4.68,4.68,0,0,0-2,4c0,2,1.08,3.56,3.24,4.58a51.86,51.86,0,0,0,10.1,3,112.28,112.28,0,0,1,12.82,4,22.24,22.24,0,0,1,8.7,6.35q3.75,4.39,3.88,11.75a18.61,18.61,0,0,1-3.5,11.11,23.09,23.09,0,0,1-10,7.69A38.43,38.43,0,0,1,851,138,40.86,40.86,0,0,1,834.46,134.79Z"/><path class="cls-1" d="M959.43,106.72H910.28q.51,6.6,4.26,10.1a13,13,0,0,0,9.2,3.49q8.13,0,11.31-6.86h23.11A31.71,31.71,0,0,1,951.75,126a32.16,32.16,0,0,1-11.62,8.77A37.46,37.46,0,0,1,924.51,138,38,38,0,0,1,906,133.52a31.71,31.71,0,0,1-12.71-12.7,39.33,39.33,0,0,1-4.57-19.31,39.6,39.6,0,0,1,4.51-19.3,31.23,31.23,0,0,1,12.64-12.7,41.14,41.14,0,0,1,37-.13A31,31,0,0,1,955.3,81.7a37.35,37.35,0,0,1,4.51,18.67A54.11,54.11,0,0,1,959.43,106.72ZM937.59,94.65a11.19,11.19,0,0,0-3.81-8.89,14,14,0,0,0-9.53-3.3,13.71,13.71,0,0,0-9.2,3.18,14.08,14.08,0,0,0-4.64,9Z"/><polygon class="cls-1" points="291.88 60.41 291.88 45.6 271.88 45.6 271.88 60.41 271.88 76.47 291.88 61.24 291.88 60.41"/><polygon class="cls-1" points="121.96 71.28 121.96 91.28 121.96 111.28 121.96 121.96 74.3 45.6 59.69 45.6 50.33 45.6 39.69 45.6 39.69 71.28 39.69 91.28 39.69 111.28 39.69 136.95 59.69 136.95 59.69 111.28 59.69 91.28 59.69 71.28 59.69 60.59 107.34 136.95 121.96 136.95 131.31 136.95 141.96 136.95 141.96 111.28 141.96 91.28 141.96 71.28 141.96 45.6 121.96 45.6 121.96 71.28"/><polygon class="cls-1" points="237.06 71.28 237.06 91.28 237.06 116.09 217.06 116.09 197.06 116.09 177.06 116.09 177.06 91.28 177.06 71.28 177.06 45.6 157.06 45.6 157.06 71.28 157.06 91.28 157.06 116.95 182.73 136.95 197.06 136.95 217.06 136.95 231.39 136.95 257.06 116.95 257.06 91.28 257.06 71.28 257.06 45.6 237.06 45.6 237.06 71.28"/><polygon class="cls-1" points="371.88 45.6 340.26 45.6 291.88 82.43 291.88 82.43 271.88 97.66 271.88 111.28 271.88 136.95 291.88 136.95 291.88 111.28 291.88 100.12 340.26 136.95 371.88 136.95 311.88 91.28 371.88 45.6"/></svg>