<svg id="Layer_1" data-name="Layer 1" xmlns="http://www.w3.org/2000/svg" viewBox="0 0 400 400"><defs><style>.cls-1{fill:#fe3c3b;}.cls-2{fill:#fff;}</style></defs><rect class="cls-1" width="400" height="400" rx="40"/><polygon class="cls-2" points="126.56 183.07 126.56 201.13 126.56 219.2 126.56 228.84 83.53 159.89 70.33 159.89 61.88 159.89 52.27 159.89 52.27 183.07 52.27 201.13 52.27 219.2 52.27 242.38 70.33 242.38 70.33 219.2 70.33 201.13 70.33 183.07 70.33 173.43 113.37 242.38 126.56 242.38 135.01 242.38 144.63 242.38 144.63 219.2 144.63 201.13 144.63 183.07 144.63 159.89 126.56 159.89 126.56 183.07"/><polygon class="cls-2" points="230.51 183.07 230.51 201.13 230.51 223.55 212.45 223.55 194.39 223.55 176.33 223.55 176.33 201.13 176.33 183.07 176.33 159.89 158.26 159.89 158.26 183.07 158.26 201.13 158.26 224.32 181.45 242.38 194.39 242.38 212.45 242.38 225.39 242.38 248.57 224.32 248.57 201.13 248.57 183.07 248.57 159.89 230.51 159.89 230.51 183.07"/><polygon class="cls-2" points="352.27 159.89 323.71 159.89 280.02 193.15 280.02 193.15 261.96 206.9 261.96 219.2 261.96 242.38 280.02 242.38 280.02 219.2 280.02 209.12 323.71 242.38 352.27 242.38 298.08 201.13 352.27 159.89"/><polygon class="cls-2" points="280.02 173.26 280.02 159.89 261.96 159.89 261.96 173.26 261.96 187.76 280.02 174.01 280.02 173.26"/></svg>